# AST/ASF file generated using VICON BodyLanguage
# -----------------------------------------------
:version 1.10
:name VICON
:units
  mass 1.0
  length 0.45
  angle deg
:documentation
   .ast/.asf automatically generated from VICON data using
   VICON BodyBuilder and BodyLanguage model FoxedUp or BRILLIANT.MOD
:root
   order TX TY TZ RX RY RZ
   axis XYZ
   position 0 0 0  
   orientation 0 0 0 
:bonedata
  begin
     id 1 
     name lhipjoint
     direction 0.577973 -0.728611 0.367523 
     length 2.48544 
     axis 0 0 0  XYZ
  end
  begin
     id 2 
     name lfemur
     direction 0.34202 -0.939693 0  
     length 7.1921  
     axis 0 0 20  XYZ
    dof rx ry rz
    limits (-160.0 20.0)
           (-70.0 70.0)
           (-60.0 70.0)
  end
  begin
     id 3 
     name ltibia
     direction 0.34202 -0.939693 0   
     length 7.71059   
     axis 0 0 20   XYZ
    dof rx
    limits (-10.0 170.0)
  end
  begin
     id 4 
     name lfoot
     direction 0.089538 -0.246004 0.965124   
     length 2.19909   
     axis -90 7.62852e-016 20   XYZ
    dof rx rz
    limits (-45.0 90.0)
           (-70.0 20.0)
  end
  begin
     id 5 
     name ltoes
     direction 1.53544e-011 -4.21829e-011 1   
     length 1.10116   
     axis -90 7.62852e-016 20   XYZ
    dof rx
    limits (-90.0 20.0)
  end
  begin
     id 6 
     name rhipjoint
     direction -0.554414 -0.743062 0.374812   
     length 2.4371  
     axis 0 0 0  XYZ 
  end
  begin
     id 7 
     name rfemur
     direction -0.34202 -0.939693 0   
     length 7.47254   
     axis 0 0 -20   XYZ
    dof rx ry rz
    limits (-160.0 20.0)
           (-70.0 70.0)
           (-70.0 60.0)
  end
  begin
     id 8 
     name rtibia
     direction -0.34202 -0.939693 0   
     length 7.65855   
     axis 0 0 -20   XYZ
    dof rx
    limits (-10.0 170.0)
 end
 begin
     id 9 
     name rfoot
     direction -0.133779 -0.367555 0.92033   
     length 2.43006  
     axis -90 -7.62852e-016 -20   XYZ
    dof rx rz
    limits (-45.0 90.0)
           (-20.0 70.0)
  end
  begin
     id 10 
     name rtoes
     direction -1.53563e-011 -4.21889e-011 1   
     length 1.19625   
     axis -90 -7.62852e-016 -20   XYZ
    dof rx
    limits (-90.0 20.0)
  end
  begin
     id 11 
     name lowerback
     direction 0.0249066 0.998043 -0.0573585   
     length 2.08485   
     axis 0 0 0   XYZ
    dof rx ry rz
    limits (-20.0 45.0)
           (-30.0 30.0)
           (-30.0 30.0)
  end
  begin
     id 12 
     name upperback
     direction 0.0237884 0.999673 0.00943178   
     length 2.08515   
     axis 0 0 0   XYZ
    dof rx ry rz
    limits (-20.0 45.0)
           (-30.0 30.0)
           (-30.0 30.0)
  end
  begin
     id 13 
     name thorax
     direction 0.0106671 0.999301 0.0358174   
     length 2.09037   
     axis 0 0 0   XYZ
    dof rx ry rz
    limits (-20.0 45.0)
           (-30.0 30.0)
           (-30.0 30.0)
  end
  begin
     id 14 
     name lowerneck
     direction -0.0580016 0.987052 0.149546   
     length 1.84454   
     axis 0 0 0   XYZ
    dof rx ry rz
    limits (-20.0 45.0)
           (-30.0 30.0)
           (-30.0 30.0)
  end
  begin
     id 15 
     name upperneck
     direction 0.079456 0.981963 -0.171567   
     length 1.88141   
     axis 0 0 0   XYZ
    dof rx ry rz
    limits (-20.0 45.0)
           (-30.0 30.0)
           (-30.0 30.0)
  end
  begin
     id 16
     name head
     direction 0.0262167 0.9967 -0.0768276  
     length 1.89541  
     axis 0 0 0   XYZ
    dof rx ry rz
    limits (-20.0 45.0)
           (-30.0 30.0)
           (-30.0 30.0)
  end
  begin
     id 17 
     name lclavicle
     direction 0.946135 0.322134 -0.0325326  
     length 3.949  
     axis 0 0 0   XYZ
    dof ry rz
    limits (-20.0 10.0)
           (0.0 20.0)
  end
  begin
     id 18 
     name lhumerus
     direction 1 -4.48964e-011 1.94005e-028   
     length 5.10995   
     axis 180 -30 -90   XYZ
    dof rx ry rz
    limits (-60.0 90.0)
           (-90.0 90.0)
           (-90.0 90.0)
  end
  begin
     id 19
     name lradius
     direction 1 -4.48976e-011 2.87852e-027   
     length 3.21207   
     axis 180 -30 -90   XYZ
    dof rx
    limits (-10.0 170.0)
  end
  begin
     id 20
     name lwrist
     direction 1 -4.48963e-011 1.9975e-027   
     length 1.60604   
     axis 2.96054e-016 90 90   XYZ
    dof ry
    limits (-180.0 0.0)
 end
  begin
     id 21 
     name lhand
     direction 1 -4.48919e-011 4.00227e-027   
     length 0.63349   
     axis -2.5488e-015 90 90   XYZ
    dof rx rz
    limits (-90.0 90.0)
           (-45.0 45.0)
  end
  begin
     id 22 
     name lfingers
     direction 1 -4.49037e-011 7.9652e-027   
     length 0.510736   
     axis -5.0975e-015 90 90   XYZ
    dof rx
    limits (0.0 90.0)
  end
  begin
     id 23
     name lthumb
     direction 0.707107 -6.34922e-011 0.707107   
     length 0.733318   
     axis -90 45 -4.48553e-014   XYZ
    dof rx rz
    limits (-45.0 45.0)
           (-45.0 45.0)
  end
  begin
     id 24 
     name rclavicle
     direction -0.940085 0.328911 -0.0897654   
     length 3.93848  
     axis 0 0 0   XYZ 
    dof ry rz
    limits (-10.0 20.0)
           (-20.0 0.0)
  end
  begin
     id 25 
     name rhumerus
     direction -1 -4.48958e-011 3.02044e-027  
     length 5.25109   
     axis 180 30 90   XYZ
    dof rx ry rz
    limits (-90.0 60.0)
           (-90.0 90.0)
           (-90.0 90.0)
  end
  begin
     id 26 
     name rradius
     direction -1 -4.4897e-011 9.78352e-028   
     length 3.28364   
     axis 180 30 90   XYZ
    dof rx
    limits (-10.0 170.0)
  end
  begin
     id 27 
     name rwrist
     direction -1 -4.48943e-011 1.99918e-027   
     length 1.64182   
     axis 2.96054e-016 -90 -90   XYZ
    dof ry
    limits (-180.0 0.0)
  end
  begin
     id 28
     name rhand
     direction -1 -4.49024e-011 3.98478e-027   
     length 0.599745   
     axis -2.5488e-015 -90 -90   XYZ
    dof rx rz
    limits (-90.0 90.0)
           (-45.0 45.0)
  end
  begin
     id 29
     name rfingers
     direction -1 -4.48914e-011 8.00621e-027   
     length 0.48353   
     axis -5.0975e-015 -90 -90   XYZ
    dof rx
    limits (0.0 90.0)
  end
  begin
     id 30
     name rthumb
     direction -0.707107 -6.34992e-011 0.707107   
     length 0.694255   
     axis -90 -45 4.48553e-014   XYZ
    dof rx rz
    limits (-45.0 45.0)
           (-45.0 45.0)
  end
:hierarchy
  begin
    root lhipjoint rhipjoint lowerback
    lhipjoint lfemur
    lfemur ltibia
    ltibia lfoot
    lfoot ltoes
    rhipjoint rfemur
    rfemur rtibia
    rtibia rfoot
    rfoot rtoes
    lowerback upperback
    upperback thorax
    thorax lowerneck lclavicle rclavicle
    lowerneck upperneck
    upperneck head
    lclavicle lhumerus
    lhumerus lradius
    lradius lwrist
    lwrist lhand lthumb
    lhand lfingers
    rclavicle rhumerus
    rhumerus rradius
    rradius rwrist
    rwrist rhand rthumb
    rhand rfingers
  end

#!OML:ASF E:\CV Data\Top Level 1\Subject 1\Session 1\player.ASF
:FULLY-SPECIFIED
:DEGREES
1
root 5.266 17.8168 -32.5346 4.44566 -4.8739 -4.99495
lowerback 1.78726 -0.965977 2.52243
upperback -2.31282 -1.09147 3.89732
thorax -3.35753 -0.557034 2.65664
lowerneck -5.35761 -14.5102 -19.0121
upperneck 11.4738 -19.5531 12.4401
head 7.49768 -9.60183 4.92012
rclavicle -1.78922e-014 1.51076e-014
rhumerus -25.9444 -13.9486 -82.0933
rradius 18.0845
rwrist 3.98742
rhand -17.3078 3.60299
rfingers 7.12502
rthumb 8.93833 -26.1877
lclavicle -1.78922e-014 1.51076e-014
lhumerus -37.0371 16.7938 77.5432
lradius 27.7033
lwrist -6.52516
lhand -11.1899 9.25303
lfingers 7.12502
lthumb 14.8376 38.7018
rfemur -8.32234 4.07675 22.8587
rtibia 23.1573
rfoot -16.3953 -8.55114
rtoes 2.15241
lfemur -4.90816 0.327268 -13.1069
ltibia 17.4836
lfoot -11.3815 3.76302
ltoes -4.08154
2
root 5.26809 17.8148 -32.5264 4.28172 -4.54464 -5.01999
lowerback 1.81749 -1.13864 2.528
upperback -2.30048 -1.32035 3.9198
thorax -3.35534 -0.67104 2.68802
lowerneck -5.23509 -14.3713 -18.1524
upperneck 11.2372 -19.3004 11.5735
head 7.17922 -9.50426 4.59105
rclavicle -4.03711e-014 1.11319e-014
rhumerus -26.0202 -13.081 -82.2051
rradius 18.4848
rwrist 2.98974
rhand -17.693 3.45398
rfingers 7.12502
rthumb 8.5666 -26.3522
lclavicle -4.03711e-014 1.11319e-014
lhumerus -37.052 16.441 77.7998
lradius 28.2036
lwrist -6.34302
lhand -11.2743 9.51063
lfingers 7.12502
lthumb 14.7562 38.9654
rfemur -8.01291 3.95888 22.9342
rtibia 23.0498
rfoot -16.4269 -8.74893
rtoes 2.28945
lfemur -4.76342 0.150265 -13.0479
ltibia 17.4789
lfoot -11.4303 3.60993
ltoes -3.98458
3
root 5.27055 17.8153 -32.5227 4.28837 -4.52566 -5.07225
lowerback 1.81252 -1.1069 2.62694
upperback -2.18585 -1.28069 3.89784
thorax -3.23762 -0.653628 2.60515
lowerneck -6.04158 -14.4466 -17.7385
upperneck 11.7448 -19.2762 11.0983
head 7.38408 -9.47107 4.32412
rclavicle 1.6291e-014 7.15625e-015
rhumerus -25.7728 -12.4858 -82.3259
rradius 18.9191
rwrist 2.01938
rhand -17.8494 3.07092
rfingers 7.12502
rthumb 8.41572 -26.7414
lclavicle 1.6291e-014 7.15625e-015
lhumerus -36.5789 16.0221 78.1993
lradius 28.5355
lwrist -6.20577
lhand -11.3345 9.30157
lfingers 7.12502
lthumb 14.6982 38.7605
rfemur -7.97731 3.9904 22.9941
rtibia 22.9859
rfoot -16.3997 -8.82473
rtoes 2.25338
lfemur -4.7645 0.152093 -12.9908
ltibia 17.4844
lfoot -11.4289 3.58169
ltoes -3.99968
4
root 5.27327 17.8159 -32.5222 4.31454 -4.51434 -5.08122
lowerback 1.82034 -1.14865 2.59554
upperback -2.22405 -1.33486 3.91802
thorax -3.27905 -0.679794 2.64727
lowerneck -5.72027 -14.3522 -18.418
upperneck 11.6804 -19.2578 11.8937
head 7.46022 -9.45519 4.6905
rclavicle 1.52226e-014 -2.62396e-014
rhumerus -25.7199 -12.3291 -82.1956
rradius 19.0737
rwrist 1.77896
rhand -17.8791 3.07772
rfingers 7.12502
rthumb 8.38704 -26.7358
lclavicle 1.52226e-014 -2.62396e-014
lhumerus -36.4958 15.7667 78.4308
lradius 28.9478
lwrist -6.09862
lhand -11.4569 9.05102
lfingers 7.12502
lthumb 14.5803 38.5186
rfemur -7.96602 3.9965 22.997
rtibia 22.9198
rfoot -16.3766 -8.81516
rtoes 2.16871
lfemur -4.78816 0.14893 -12.9878
ltibia 17.4806
lfoot -11.4434 3.57337
ltoes -3.99042
5
root 5.27552 17.8161 -32.5192 4.30237 -4.40793 -5.09424
lowerback 1.81631 -1.20084 2.59974
upperback -2.20197 -1.40561 3.92088
thorax -3.2521 -0.715098 2.65052
lowerneck -5.82009 -14.3155 -18.4725
upperneck 11.793 -19.2081 11.973
head 7.52035 -9.42487 4.72221
rclavicle 1.08369e-014 -3.26007e-014
rhumerus -25.5138 -12.4996 -82.0104
rradius 19.0794
rwrist 1.77239
rhand -17.9815 3.0144
rfingers 7.12502
rthumb 8.28823 -26.803
lclavicle 1.08369e-014 -3.26007e-014
lhumerus -36.3392 15.3908 78.7225
lradius 29.411
lwrist -5.92216
lhand -11.5548 8.93103
lfingers 7.12502
lthumb 14.486 38.4054
rfemur -7.90159 3.96701 23.021
rtibia 22.8672
rfoot -16.3889 -8.87641
rtoes 2.14315
lfemur -4.78463 0.104829 -12.9664
ltibia 17.4787
lfoot -11.4662 3.50779
ltoes -3.99251
6
root 5.27751 17.8165 -32.5164 4.30109 -4.29755 -5.09413
lowerback 1.79852 -1.25312 2.58895
upperback -2.18161 -1.47777 3.91875
thorax -3.21882 -0.750807 2.65664
lowerneck -5.93219 -14.2933 -18.5366
upperneck 11.9375 -19.1807 12.0625
head 7.59859 -9.40427 4.75353
rclavicle 2.22763e-014 -2.14687e-014
rhumerus -25.2523 -12.965 -81.7428
rradius 18.9487
rwrist 2.06628
rhand -18.0524 3.00071
rfingers 7.12502
rthumb 8.21981 -26.8194
lclavicle 2.22763e-014 -2.14687e-014
lhumerus -36.1947 14.9804 79.0135
lradius 29.8994
lwrist -5.7149
lhand -11.6478 8.84152
lfingers 7.12502
lthumb 14.3964 38.3223
rfemur -7.86322 3.93214 23.0306
rtibia 22.8395
rfoot -16.4158 -8.93567
rtoes 2.09927
lfemur -4.7911 0.0646245 -12.958
ltibia 17.4672
lfoot -11.485 3.43204
ltoes -4.00033
7
root 5.28032 17.817 -32.5154 4.31932 -4.30116 -5.08855
lowerback 1.78623 -1.26978 2.56763
upperback -2.1725 -1.50201 3.9126
thorax -3.20136 -0.76246 2.66272
lowerneck -6.03096 -14.2733 -18.5493
upperneck 12.0945 -19.1561 12.0957
head 7.66793 -9.38696 4.76062
rclavicle 1.585e-014 -6.36111e-015
rhumerus -24.9853 -13.5412 -81.4431
rradius 18.7674
rwrist 2.48331
rhand -18.1175 3.01713
rfingers 7.12502
rthumb 8.15691 -26.8054
lclavicle 1.585e-014 -6.36111e-015
lhumerus -36.0756 14.547 79.2961
lradius 30.3992
lwrist -5.48004
lhand -11.7278 8.81091
lfingers 7.12502
lthumb 14.3193 38.2971
rfemur -7.86985 3.93867 23.0149
rtibia 22.8203
rfoot -16.4236 -8.92341
rtoes 2.044
lfemur -4.80262 0.0734574 -12.9728
ltibia 17.4587
lfoot -11.4901 3.42117
ltoes -4.00445
8
root 5.2839 17.8176 -32.5157 4.3552 -4.41366 -5.07868
lowerback 1.78472 -1.24885 2.53829
upperback -2.17324 -1.47541 3.90274
thorax -3.20142 -0.748648 2.6677
lowerneck -6.14403 -14.2544 -18.5069
upperneck 12.2869 -19.1261 12.0478
head 7.73623 -9.36913 4.73395
rclavicle -1.25141e-014 -9.54166e-015
rhumerus -24.7441 -14.078 -81.1538
rradius 18.6231
rwrist 2.85155
rhand -18.1796 3.02316
rfingers 7.12502
rthumb 8.09704 -26.8017
lclavicle -1.25141e-014 -9.54166e-015
lhumerus -35.9701 14.0966 79.5722
lradius 30.8914
lwrist -5.21986
lhand -11.8001 8.80479
lfingers 7.12502
lthumb 14.2497 38.2959
rfemur -7.92556 3.98533 22.9768
rtibia 22.8244
rfoot -16.4187 -8.85032
rtoes 1.97967
lfemur -4.82092 0.126889 -13.0084
ltibia 17.461
lfoot -11.4848 3.475
ltoes -3.99945
9
root 5.28837 17.8183 -32.5179 4.41199 -4.65185 -5.07381
lowerback 1.80054 -1.18751 2.50731
upperback -2.19254 -1.39315 3.89371
thorax -3.23196 -0.707073 2.67287
lowerneck -6.257 -14.2256 -18.4975
upperneck 12.548 -19.0841 11.9901
head 7.82773 -9.34773 4.70953
rclavicle -3.36226e-014 5.1684e-014
rhumerus -24.5631 -14.4189 -80.9129
rradius 18.575
rwrist 3.02863
rhand -18.2413 3.01608
rfingers 7.12502
rthumb 8.0375 -26.8111
lclavicle -3.36226e-014 5.1684e-014
lhumerus -35.8803 13.6555 79.8316
lradius 31.3567
lwrist -4.95934
lhand -11.8616 8.83426
lfingers 7.12502
lthumb 14.1904 38.3296
rfemur -8.03603 4.0807 22.9236
rtibia 22.8488
rfoot -16.3924 -8.70773
rtoes 1.89237
lfemur -4.84921 0.232552 -13.0573
ltibia 17.4785
lfoot -11.4682 3.60469
ltoes -3.98868
10
root 5.29352 17.8186 -32.5213 4.48156 -4.97562 -5.07483
lowerback 1.83146 -1.09808 2.47728
upperback -2.2256 -1.27193 3.88613
thorax -3.28643 -0.64609 2.67787
lowerneck -6.32347 -14.1768 -18.4961
upperneck 12.8013 -19.0187 11.9219
head 7.905 -9.3185 4.6903
rclavicle -6.77421e-015 -1.11319e-014
rhumerus -24.4491 -14.4765 -80.7466
rradius 18.6578
rwrist 2.90717
rhand -18.3048 2.9834
rfingers 7.12502
rthumb 7.97619 -26.8461
lclavicle -6.77421e-015 -1.11319e-014
lhumerus -35.8042 13.235 80.0719
lradius 31.7909
lwrist -4.7118
lhand -11.9373 8.83953
lfingers 7.12502
lthumb 14.1174 38.3399
rfemur -8.18088 4.20926 22.8626
rtibia 22.8867
rfoot -16.3494 -8.52026
rtoes 1.81519
lfemur -4.88708 0.397728 -13.1109
ltibia 17.5142
lfoot -11.4525 3.76257
ltoes -3.96626
